<?xml version="1.0" encoding="utf-8"?>
<!-- Generator: Adobe Illustrator 24.0.1, SVG Export Plug-In . SVG Version: 6.00 Build 0)  -->
<svg version="1.1" id="Layer_1" xmlns="http://www.w3.org/2000/svg" xmlns:xlink="http://www.w3.org/1999/xlink" x="0px" y="0px"
	 viewBox="0 0 531.75 116.72" style="enable-background:new 0 0 531.75 116.72;" xml:space="preserve">
<style type="text/css">
	.st0{fill:#1A5DA6;}
	.st1{fill:#D32027;}
	.st2{fill:none;stroke:#1A5DA6;stroke-width:6;stroke-miterlimit:10;}
</style>
<g>
	<path class="st0" d="M71.8,24.61c20.61,0,31.79,10.33,31.72,26.8c-0.06,11.95-5.31,22.95-15.7,29.19
		c-8.21,5.09-16.28,6.76-28.19,6.76H35l0.74-3.14c7.44-0.61,8.56-1.8,9.85-8.85l7.5-38.48c1.45-7.5,1.1-8.46-7.12-9.08l0.74-3.21
		L71.8,24.61L71.8,24.61z M56.87,74c-1.61,8.55,3.35,9.23,8.51,9.23c16.47,0,25.77-15.04,25.77-32.61
		c0-13.21-5.69-22.06-18.75-22.06c-5.57,0-6.84,0.86-7.81,5.95L56.87,74z"/>
	<path class="st0" d="M150.73,59.01c0,9.98-4.77,20.25-13.83,25.65c-3.6,2.19-8.03,3.86-12.69,3.86c-10.74,0-14.07-8.22-14.07-15.56
		c0-13.57,7.65-23.19,16.99-27.28c3.15-1.36,6.86-2.17,9.76-2.17C146,43.51,150.73,49.51,150.73,59.01z M121.23,72.97
		c0,7.37,2.45,11.31,6.7,11.31c7.54,0,11.8-14.21,11.8-25.57c0-7.7-2.72-11.02-6.6-11.02C124.23,47.69,121.23,64.91,121.23,72.97z"
		/>
	<path class="st1" d="M212.28,71.94c-1.51,4.55-4.94,12.49-6.65,14.84c-2.96,0.57-8.92,2.03-15.99,2.03
		c-17.23,0-29.77-10.04-29.77-27.84c0-23.16,18.52-37.71,40.02-37.71c8.55,0,13.95,1.6,17.61,2.38c-0.74,3.78-1.64,10.44-2.18,15.9
		l-3.31,0.26c-0.57-11.11-4.74-14.62-13.43-14.62c-14.63,0-26.18,15.02-26.18,34.14c0,14.89,7.14,23.42,17.82,23.42
		c8.14,0,13.21-4.41,19.07-14.05L212.28,71.94z"/>
	<path class="st1" d="M260.12,59.01c0,9.98-4.77,20.25-13.83,25.65c-3.6,2.19-8.03,3.86-12.69,3.86c-10.74,0-14.07-8.22-14.07-15.56
		c0-13.57,7.65-23.19,16.99-27.28c3.15-1.36,6.86-2.17,9.76-2.17C255.39,43.51,260.12,49.51,260.12,59.01z M230.62,72.97
		c0,7.37,2.45,11.31,6.7,11.31c7.54,0,11.8-14.21,11.8-25.57c0-7.7-2.72-11.02-6.6-11.02C233.62,47.69,230.62,64.91,230.62,72.97z"
		/>
	<path class="st1" d="M307.52,59.01c0,9.98-4.77,20.25-13.83,25.65c-3.6,2.19-8.03,3.86-12.69,3.86c-10.74,0-14.07-8.22-14.07-15.56
		c0-13.57,7.65-23.19,16.99-27.28c3.15-1.36,6.86-2.17,9.76-2.17C302.79,43.51,307.52,49.51,307.52,59.01z M278.03,72.97
		c0,7.37,2.45,11.31,6.7,11.31c7.54,0,11.8-14.21,11.8-25.57c0-7.7-2.72-11.02-6.6-11.02C281.02,47.69,278.03,64.91,278.03,72.97z"
		/>
	<path class="st1" d="M334.56,78.2c-5.64,7.03-12.33,10.32-15.76,10.32c-2.92,0-4.68-1.99-2.81-11.14
		c2.97-14.25,6.74-32.35,9.7-46.91c0.84-4.11,0.36-4.5-3.12-4.85c-0.94-0.03-2.49-0.29-3.07-0.29l0.77-2.89
		c5.53-0.67,10.58-1.64,13.54-2.6c1.68-0.61,2.57-0.77,3.21-0.77c1.06,0,1.12,0.99,0.64,3.28c-3.97,17.66-8.76,40.92-11.45,54.04
		c-0.52,2.51-0.48,3.51,0.29,3.51c0.81,0,3.32-1.29,6.42-4.55L334.56,78.2z"/>
	<path class="st1" d="M368.21,48.61c-1.62,0.19-6.6,0.52-9.38,0.58c-4.47,21.21-4.82,22.62-5.61,27.21
		c-0.61,3.37-0.09,4.18,0.78,4.18c1.87,0,5.05-2.26,8.25-5.71l1.44,2.79c-3.53,4.98-11.12,10.86-16.46,10.86
		c-4.13,0-5.96-3.11-3.58-13.87l5.47-25.46h-7.6l-0.12-0.87l2.93-3.65h5.79l2.16-10.14c2.68-1.37,7.73-4.17,10.2-6.19l1.24,0.73
		c-1.1,3.61-2.83,10.58-3.89,15.6h10.4L368.21,48.61z"/>
	<path class="st1" d="M416.62,78.14c-5.48,7.19-11.82,10.35-15.53,10.35c-3.14,0-4.29-2.88-2.75-10.46c0.52-2.48,0.88-4.1,1.3-5.97
		c-3.58,4.78-7.02,8.54-11.54,12.25c-2.24,1.78-5.96,4.18-9.62,4.18c-3.53,0-7.32-2.22-4.62-13.96c1.39-5.86,3-12.25,4.64-19.32
		c0.65-2.58,0.61-3.51-0.22-3.51c-1,0-3.99,2.15-6.09,4.25l-1.41-2.85c5.39-5.87,12.29-9.58,15.79-9.58c3.14,0,3.93,2.8,1.94,11.31
		c-1.45,5.93-3.13,12.19-4.54,18.77c-1.2,5.12-0.55,6.83,1.06,6.83c2.94,0,7.57-4.33,11.49-9.66c2.33-3.23,4.47-6.98,5.98-12.74
		c0.77-2.97,1.67-7.18,2.63-11.9c2.75-0.77,6.55-1.83,9.4-2.64h1.25c-2.58,10.19-6.03,24.37-7.48,32.86
		c-0.35,2.44-0.25,3.47,0.49,3.47c0.81,0,2.87-0.91,6.19-4.42L416.62,78.14z"/>
	<path class="st1" d="M423.14,53.12c5.14-5.88,10.7-9.61,14.62-9.61c3.41,0,4.12,4.49,1.97,13.73l-0.52,2.29
		c4.96-8.69,11.12-16.03,15.55-16.03c2.88,0,5.01,2.43,5.01,4.91c0,2.75-2.47,6.28-4.52,7.62c-0.99,0.64-1.77,0.64-2.31,0
		c-1.38-1.47-2.59-2.86-3.81-2.86c-2.6,0-7.45,8.11-8.92,10.94c-2.69,5.2-4.49,14.34-6.11,22.35c-3.13,0.39-7.06,1.25-9.68,2.06
		l-0.74-0.8c2.38-9.45,5.38-22.36,6.73-29.35c1.19-5.72,0.9-6.53,0.16-6.53c-0.84,0-3.44,1.61-6.02,4.13L423.14,53.12z"/>
	<path class="st1" d="M472.83,88.52c-5.45,0-11.72-3.02-11.72-14.57c0-9.04,3.86-19.13,11.24-24.79c4.09-3.03,9.7-5.65,14.6-5.65
		c6.51,0,9.66,3.79,9.66,8.23c0,9.97-14.5,14.07-24.5,15.93c-0.1,0.97-0.19,3.03-0.19,3.8c0,5.22,1.54,10,7.03,10
		c4.6,0,9.56-2.77,14.22-7.63l1.51,2.85C487.3,85.46,479.29,88.52,472.83,88.52z M472.49,64.17c11.43-2.45,14.58-6.64,14.62-11.52
		c0-3.22-1.74-4.74-4.27-4.74C480.2,47.91,474.66,50.6,472.49,64.17z"/>
</g>
<polyline class="st2" points="3.25,23.28 3.25,3 528.75,3 528.75,113.72 3.25,113.72 3,85.37 "/>
</svg>
